<?xml version="1.0" encoding="UTF-8"?>
<svg width="129px" height="29px" viewBox="0 0 129 29" version="1.1" xmlns="http://www.w3.org/2000/svg" xmlns:xlink="http://www.w3.org/1999/xlink">
    <!-- Generator: Sketch 3.8.1 (29687) - http://www.bohemiancoding.com/sketch -->
    <title>Page 1</title>
    <desc>Created with Sketch.</desc>
    <defs>
        <polygon id="path-1" points="13.9727813 14.0429663 13.9727813 0.0702688414 7.03632703 0.0702688414 0.0998727093 0.0702688414 0.0998727093 14.0429663 13.9727813 14.0429663"></polygon>
        <polygon id="path-3" points="0 0.0276175478 0 20.0189359 20.7453849 20.0189359 20.7453849 0.0276175478 1.49842534e-21 0.0276175478"></polygon>
    </defs>
    <g id="Page-1" stroke="none" stroke-width="1" fill="none" fill-rule="evenodd">
        <g id="Home" transform="translate(-414.000000, -29.000000)">
            <g id="Tela-00" transform="translate(-1.000000, 0.000000)">
                <g id="Page-1" transform="translate(415.000000, 29.000000)">
                    <polygon id="Fill-1" fill="#FEFEFE" points="52.8385121 7.97530191 48.0217795 20.1159982 43.8750663 9.61353476 43.2283759 7.97530191 37.622546 7.97530191 45.9673847 27.9666202 49.9650572 27.9666202 58.4460004 7.97530191"></polygon>
                    <g id="Group-18" transform="translate(0.000000, 0.041092)">
                        <path d="M68.1123254,23.4048584 C65.1958609,23.4048584 62.80325,21.0218426 62.80325,17.7552881 C62.80325,15.1418663 65.1958609,12.7555097 68.1123254,12.7555097 C71.0271313,12.7555097 73.4263761,15.1418663 73.4263761,17.7552881 C73.4263761,21.0218426 71.0271313,23.4048584 68.1123254,23.4048584 M68.1123254,7.98580326 C62.7005358,7.98580326 57.7147504,12.0005929 57.7147504,17.7286728 C57.7147504,23.8542003 62.0803808,28.1743421 68.1123254,28.1743421 C74.1492453,28.1743421 78.5115588,23.8542003 78.5115588,17.7286728 C78.5115588,12.0005929 73.522567,7.98580326 68.1123254,7.98580326" id="Fill-2" fill="#FEFEFE"></path>
                        <polygon id="Fill-4" fill="#FEFEFE" points="109.719265 12.334498 109.719265 7.93417627 98.4263407 7.93417627 98.4263407 27.925606 109.719265 27.925606 109.719265 23.5233911 103.586154 23.5233911 103.586154 20.0748726 109.402498 20.0748726 109.402498 15.6763326 103.586154 15.6763326 103.586154 12.334498"></polygon>
                        <path d="M85.6974295,11.9103125 L86.1966272,11.9103125 C87.8794155,11.9103125 89.7762562,12.2276916 89.7762562,14.4020166 C89.7762562,16.5731123 87.8794155,16.8952799 86.1966272,16.8952799 L85.6974295,16.8952799 L85.6974295,11.9103125 Z M85.7488419,20.2368918 L90.6169869,27.9255948 L97.0417664,27.9255948 L90.8043934,19.729308 C93.6179225,19.2265127 95.1450362,16.843497 95.1450362,14.0847489 C95.1450362,9.8178378 92.1705255,7.93416513 88.251022,7.93416513 L80.5377265,7.93416513 L80.5377265,27.888957 L85.6974295,23.9910965 L85.6974295,20.2368918 L85.7488419,20.2368918 Z" id="Fill-6" fill="#FEFEFE"></path>
                        <path d="M27.4985845,11.9103125 L27.9977822,11.9103125 C29.6805705,11.9103125 31.5774112,12.2276916 31.5774112,14.4020166 C31.5774112,16.5731123 29.6805705,16.8952799 27.9977822,16.8952799 L27.4985845,16.8952799 L27.4985845,11.9103125 Z M27.5499969,20.2368918 L32.4195792,27.9255948 L38.8412629,27.9255948 L32.6036687,19.729308 C35.4190774,19.2265127 36.9478497,16.843497 36.9478497,14.0847489 C36.9478497,9.8178378 33.973339,7.93416513 30.0502974,7.93416513 L22.3387709,7.93416513 L22.3387709,27.862119 L27.4985845,23.9644812 L27.4985845,20.2368918 L27.5499969,20.2368918 Z" id="Fill-8" fill="#FEFEFE"></path>
                        <g id="Group-12" transform="translate(115.097410, 0.000000)">
                            <mask id="mask-2" fill="white">
                                <use xlink:href="#path-1"></use>
                            </mask>
                            <g id="Clip-11"></g>
                            <path d="M10.6517954,8.76756918 L7.3406165,10.9384421 L7.3406165,6.41105737 L10.6517954,4.23851406 L10.6517954,8.76756918 Z M6.72377841,10.9384421 L3.42111296,8.76756918 L3.42111296,4.23851406 L6.72377841,6.41105737 L6.72377841,10.9384421 Z M7.03722813,14.0429663 C10.8690542,14.0429663 13.9728145,10.9134972 13.9728145,7.05572666 C13.9728145,6.09891226 13.7796587,5.18864679 13.4346982,4.35878403 C12.3869911,1.84035321 9.91897538,0.0702688414 7.03722813,0.0702688414 C4.15559143,0.0702688414 1.68757569,1.83701237 0.638984113,4.35366142 C0.293139062,5.18530596 0.0998727093,6.09724184 0.0998727093,7.05572666 C0.0998727093,10.9134972 3.20385416,14.0429663 7.03722813,14.0429663 L7.03722813,14.0429663 Z" id="Fill-10" fill="#FEFEFE" mask="url(#mask-2)"></path>
                        </g>
                        <polygon id="Fill-13" fill="#FEFEFE" points="8.38878793 5.50769629 7.7414341 7.34470866 13.988979 5.35891789"></polygon>
                        <g id="Group-17" transform="translate(0.000000, 7.906637)">
                            <mask id="mask-4" fill="white">
                                <use xlink:href="#path-3"></use>
                            </mask>
                            <g id="Clip-16"></g>
                            <path d="M8.26699033,12.5691024 L10.3992224,6.20470529 L10.4522932,6.20470529 L12.5563314,12.5691024 L8.26699033,12.5691024 Z M20.0688421,18.2104319 L13.2675913,0.0276175478 L13.2378496,0.0276175478 L6.94044016,1.84614398 L2.51200926,13.4426187 L-1.10564275e-05,20.0189359 L5.47656916,20.0189359 L6.52858824,17.3486085 L6.84601827,16.5420202 L13.950768,16.5420202 L15.1031794,19.6432036 L15.2423799,20.0189359 L20.7453849,20.0189359 L20.0688421,18.2104319 Z" id="Fill-15" fill="#FEFEFE" mask="url(#mask-4)"></path>
                        </g>
                    </g>
                </g>
            </g>
        </g>
    </g>
</svg>